<mxfile host="app.diagrams.net" modified="2021-09-30T11:08:58.748Z" agent="5.0 (Windows NT 10.0; Win64; x64) AppleWebKit/537.36 (KHTML, like Gecko) Chrome/94.0.4606.61 Safari/537.36" etag="E9p5B1cPIjUR-Lfse3rR" version="15.3.8" type="github">
  <diagram id="gf6cXl6w6BqGIpnqQrfS" name="Page-1">
    <mxGraphModel dx="1038" dy="521" grid="1" gridSize="10" guides="1" tooltips="1" connect="1" arrows="1" fold="1" page="1" pageScale="1" pageWidth="850" pageHeight="1100" math="0" shadow="0">
      <root>
        <mxCell id="0" />
        <mxCell id="1" parent="0" />
        <mxCell id="bo95F3XCpvJQRq9uq9I2-1" value="&lt;font style=&quot;font-size: 15px&quot;&gt;Rubic Cube Solution&lt;/font&gt;" style="ellipse;whiteSpace=wrap;html=1;aspect=fixed;fillColor=#eeeeee;strokeColor=#36393d;" vertex="1" parent="1">
          <mxGeometry x="310" y="230" width="150" height="150" as="geometry" />
        </mxCell>
        <mxCell id="bo95F3XCpvJQRq9uq9I2-2" value="Initialize the colors" style="rounded=0;whiteSpace=wrap;html=1;" vertex="1" parent="1">
          <mxGeometry x="110" y="130" width="120" height="60" as="geometry" />
        </mxCell>
        <mxCell id="bo95F3XCpvJQRq9uq9I2-3" value="Randomize the cube" style="rounded=0;whiteSpace=wrap;html=1;" vertex="1" parent="1">
          <mxGeometry x="325" y="20" width="120" height="60" as="geometry" />
        </mxCell>
        <mxCell id="bo95F3XCpvJQRq9uq9I2-4" value="Rotate Cube" style="rounded=0;whiteSpace=wrap;html=1;" vertex="1" parent="1">
          <mxGeometry x="580" y="130" width="120" height="60" as="geometry" />
        </mxCell>
        <mxCell id="bo95F3XCpvJQRq9uq9I2-5" value="Swapping edges" style="rounded=0;whiteSpace=wrap;html=1;" vertex="1" parent="1">
          <mxGeometry x="580" y="340" width="120" height="60" as="geometry" />
        </mxCell>
        <mxCell id="bo95F3XCpvJQRq9uq9I2-6" value="Orient color corners" style="rounded=0;whiteSpace=wrap;html=1;" vertex="1" parent="1">
          <mxGeometry x="325" y="500" width="120" height="60" as="geometry" />
        </mxCell>
        <mxCell id="bo95F3XCpvJQRq9uq9I2-7" value="Position color corners" style="rounded=0;whiteSpace=wrap;html=1;" vertex="1" parent="1">
          <mxGeometry x="110" y="340" width="120" height="60" as="geometry" />
        </mxCell>
        <mxCell id="bo95F3XCpvJQRq9uq9I2-9" value="" style="endArrow=classic;startArrow=classic;html=1;entryX=0.5;entryY=1;entryDx=0;entryDy=0;" edge="1" parent="1" source="bo95F3XCpvJQRq9uq9I2-1" target="bo95F3XCpvJQRq9uq9I2-3">
          <mxGeometry width="50" height="50" relative="1" as="geometry">
            <mxPoint x="340" y="130" as="sourcePoint" />
            <mxPoint x="385" y="90" as="targetPoint" />
          </mxGeometry>
        </mxCell>
        <mxCell id="bo95F3XCpvJQRq9uq9I2-10" value="" style="endArrow=classic;startArrow=classic;html=1;exitX=1;exitY=1;exitDx=0;exitDy=0;" edge="1" parent="1" source="bo95F3XCpvJQRq9uq9I2-2">
          <mxGeometry width="50" height="50" relative="1" as="geometry">
            <mxPoint x="270" y="310" as="sourcePoint" />
            <mxPoint x="320" y="260" as="targetPoint" />
          </mxGeometry>
        </mxCell>
        <mxCell id="bo95F3XCpvJQRq9uq9I2-11" value="" style="endArrow=classic;startArrow=classic;html=1;exitX=0.939;exitY=0.228;exitDx=0;exitDy=0;exitPerimeter=0;entryX=0;entryY=1;entryDx=0;entryDy=0;" edge="1" parent="1" source="bo95F3XCpvJQRq9uq9I2-1" target="bo95F3XCpvJQRq9uq9I2-4">
          <mxGeometry width="50" height="50" relative="1" as="geometry">
            <mxPoint x="530" y="210" as="sourcePoint" />
            <mxPoint x="580" y="160" as="targetPoint" />
          </mxGeometry>
        </mxCell>
        <mxCell id="bo95F3XCpvJQRq9uq9I2-13" value="" style="endArrow=classic;startArrow=classic;html=1;exitX=1;exitY=0;exitDx=0;exitDy=0;" edge="1" parent="1" source="bo95F3XCpvJQRq9uq9I2-7">
          <mxGeometry width="50" height="50" relative="1" as="geometry">
            <mxPoint x="260" y="350" as="sourcePoint" />
            <mxPoint x="310" y="300" as="targetPoint" />
          </mxGeometry>
        </mxCell>
        <mxCell id="bo95F3XCpvJQRq9uq9I2-14" value="" style="endArrow=classic;startArrow=classic;html=1;" edge="1" parent="1">
          <mxGeometry width="50" height="50" relative="1" as="geometry">
            <mxPoint x="460" y="300" as="sourcePoint" />
            <mxPoint x="580" y="340" as="targetPoint" />
          </mxGeometry>
        </mxCell>
        <mxCell id="bo95F3XCpvJQRq9uq9I2-15" value="" style="endArrow=classic;startArrow=classic;html=1;" edge="1" parent="1">
          <mxGeometry width="50" height="50" relative="1" as="geometry">
            <mxPoint x="390" y="500" as="sourcePoint" />
            <mxPoint x="390" y="380" as="targetPoint" />
          </mxGeometry>
        </mxCell>
      </root>
    </mxGraphModel>
  </diagram>
</mxfile>
